<mxfile host="multicloud-diagrams" agent="PIP package multicloud-diagrams. Generate resources in draw.io compatible format for Cloud infrastructure. Copyrights @ Roman Tsypuk 2023. MIT license." type="MultiCloud">
	<diagram id="diagram_1" name="AWS components">
		<mxGraphModel dx="1015" dy="661" grid="1" gridSize="10" guides="1" tooltips="1" connect="1" arrows="1" fold="1" page="1" pageScale="1" pageWidth="850" pageHeight="1100" math="0" shadow="1">
			<root>
				<mxCell id="0"/>
				<mxCell id="1" parent="0"/>
				<mxCell id="vertex:network_load_balancer:arn:aws:network_load_balancer:us-west-1:123456789012:service/network_load_balancer/123" value="&lt;b&gt;Name&lt;/b&gt;: Network Load Balancer&lt;BR&gt;&lt;b&gt;ARN&lt;/b&gt;: arn:aws:network_load_balancer:us-west-1:123456789012:service/network_load_balancer/123&lt;BR&gt;-----------&lt;BR&gt;&lt;b&gt;LoadBalancerArn&lt;/b&gt;: ARN&lt;BR&gt;&lt;b&gt;DNSName&lt;/b&gt;: test&lt;BR&gt;&lt;b&gt;CanonicalHostedZoneId&lt;/b&gt;: 4&lt;BR&gt;&lt;b&gt;CreatedTime&lt;/b&gt;: 2024-08-07&lt;BR&gt;&lt;b&gt;LoadBalancerName&lt;/b&gt;: ingestion&lt;BR&gt;&lt;b&gt;Scheme&lt;/b&gt;: internet-facing&lt;BR&gt;&lt;b&gt;VpcId&lt;/b&gt;: test-vpc" style="sketch=0;outlineConnect=0;fontColor=#232F3E;gradientColor=none;fillColor=#8C4FFF;strokeColor=none;dashed=0;verticalLabelPosition=bottom;verticalAlign=top;align=left;html=1;fontSize=12;fontStyle=0;aspect=fixed;pointerEvents=1;shape=mxgraph.aws4.network_load_balancer;" parent="1" vertex="1">
					<mxGeometry width="78" height="78" as="geometry"/>
				</mxCell>
			</root>
		</mxGraphModel>
	</diagram>
</mxfile>